<svg width="18" height="18" viewBox="0 0 166 192" fill="none" xmlns="http://www.w3.org/2000/svg">
<path d="M128.537 88.9883C127.71 88.5919 126.87 88.2104 126.019 87.8451C124.537 60.5382 109.616 44.905 84.5619 44.745C84.4484 44.7443 84.3355 44.7443 84.222 44.7443C69.2364 44.7443 56.7731 51.1409 49.102 62.7807L62.881 72.2328C68.6116 63.5383 77.6052 61.6848 84.2286 61.6848C84.3051 61.6848 84.3819 61.6848 84.4576 61.6855C92.707 61.7381 98.932 64.1366 102.961 68.814C105.893 72.2193 107.854 76.925 108.825 82.8638C101.511 81.6207 93.601 81.2385 85.145 81.7233C61.3247 83.0954 46.0111 96.9879 47.0396 116.292C47.5615 126.084 52.4397 134.508 60.775 140.011C67.8224 144.663 76.899 146.938 86.3323 146.423C98.79 145.74 108.563 140.987 115.381 132.296C120.559 125.696 123.834 117.143 125.28 106.366C131.217 109.949 135.617 114.664 138.047 120.332C142.179 129.967 142.42 145.8 129.501 158.708C118.182 170.016 104.576 174.908 84.0135 175.059C61.2042 174.89 43.9538 167.575 32.7381 153.317C22.2355 139.966 16.8077 120.682 16.6052 96C16.8077 71.3178 22.2355 52.0336 32.7381 38.6827C43.9538 24.4249 61.2039 17.11 84.0132 16.9405C106.988 17.1113 124.539 24.4614 136.184 38.788C141.894 45.8136 146.199 54.6488 149.037 64.9503L165.184 60.6422C161.744 47.9622 156.331 37.0357 148.965 27.974C134.036 9.60668 112.202 0.195148 84.0695 0H83.9569C55.8816 0.19447 34.2921 9.6418 19.7883 28.0793C6.8819 44.4864 0.2244 67.3157 0.000699997 95.9325L0 96L0.000699997 96.0675C0.2244 124.684 6.8819 147.514 19.7883 163.921C34.2921 182.358 55.8816 191.806 83.9569 192H84.0695C109.03 191.827 126.624 185.292 141.118 170.811C160.081 151.866 159.51 128.119 153.26 113.541C148.776 103.087 140.227 94.5962 128.537 88.9883ZM85.4405 129.507C75.0005 130.095 64.1544 125.409 63.6196 115.372C63.2232 107.93 68.9158 99.626 86.0812 98.6368C88.047 98.5234 89.976 98.468 91.871 98.468C98.106 98.468 103.939 99.0737 109.242 100.233C107.264 124.935 95.662 128.946 85.4405 129.507Z" fill="white"/>
</svg>
